<?xml version="1.0" encoding="UTF-8"?>
<svg width="400" height="300" viewBox="0 0 400 300" fill="none" xmlns="http://www.w3.org/2000/svg">
  <!-- Background -->
  <rect width="400" height="300" fill="#1E293B" rx="16"/>
  
  <!-- Main User Avatar -->
  <circle cx="200" cy="110" r="44" fill="#F1F5F9"/>
  <circle cx="200" cy="110" r="36" fill="#6366F1"/>
  <text x="200" y="120" text-anchor="middle" font-size="32" fill="#FFF" font-family="Arial" font-weight="bold">🎤</text>

  <!-- Waveform (audio) -->
  <rect x="120" y="180" width="12" height="40" rx="6" fill="#6366F1"/>
  <rect x="140" y="170" width="12" height="50" rx="6" fill="#818CF8"/>
  <rect x="160" y="185" width="12" height="35" rx="6" fill="#6366F1"/>
  <rect x="180" y="175" width="12" height="45" rx="6" fill="#818CF8"/>
  <rect x="200" y="165" width="12" height="55" rx="6" fill="#6366F1"/>
  <rect x="220" y="175" width="12" height="45" rx="6" fill="#818CF8"/>
  <rect x="240" y="185" width="12" height="35" rx="6" fill="#6366F1"/>
  <rect x="260" y="170" width="12" height="50" rx="6" fill="#818CF8"/>
  <rect x="280" y="180" width="12" height="40" rx="6" fill="#6366F1"/>

  <!-- Call Controls -->
  <circle cx="200" cy="260" r="22" fill="#F1F5F9"/>
  <circle cx="200" cy="260" r="16" fill="#EF4444"/>
  <text x="200" y="266" text-anchor="middle" font-size="18" fill="#FFF" font-family="Arial" font-weight="bold">📞</text>

  <!-- Title -->
  <text x="200" y="40" text-anchor="middle" font-size="22" fill="#FFF" font-family="Arial" font-weight="bold">Audio Call</text>
</svg>