<?xml version="1.0" encoding="UTF-8"?>
<svg width="800" height="500" viewBox="0 0 800 500" fill="none" xmlns="http://www.w3.org/2000/svg">
  <!-- Background -->
  <rect width="800" height="500" fill="#F8F9FA" rx="12"/>
  
  <!-- Header -->
  <rect width="800" height="60" fill="#FFFFFF" rx="12"/>
  <circle cx="40" cy="30" r="15" fill="#4F46E5"/>
  <rect x="70" y="20" width="120" height="20" rx="4" fill="#E5E7EB"/>
  
  <!-- Sidebar -->
  <rect width="200" height="440" y="60" fill="#FFFFFF"/>
  <rect x="20" y="80" width="160" height="40" rx="6" fill="#4F46E5"/>
  <rect x="20" y="130" width="160" height="40" rx="6" fill="#E5E7EB"/>
  <rect x="20" y="180" width="160" height="40" rx="6" fill="#E5E7EB"/>
  
  <!-- Main Content -->
  <rect x="220" y="80" width="560" height="120" rx="8" fill="#FFFFFF"/>
  <rect x="240" y="100" width="200" height="80" rx="4" fill="#4F46E5"/>
  <rect x="460" y="100" width="300" height="80" rx="4" fill="#E5E7EB"/>
  
  <!-- Charts -->
  <rect x="220" y="220" width="270" height="200" rx="8" fill="#FFFFFF"/>
  <rect x="240" y="240" width="230" height="160" rx="4" fill="#E5E7EB"/>
  
  <rect x="510" y="220" width="270" height="200" rx="8" fill="#FFFFFF"/>
  <rect x="530" y="240" width="230" height="160" rx="4" fill="#E5E7EB"/>
  
  <!-- Bottom Stats -->
  <rect x="220" y="440" width="560" height="40" rx="8" fill="#FFFFFF"/>
  <rect x="240" y="450" width="120" height="20" rx="4" fill="#E5E7EB"/>
  <rect x="380" y="450" width="120" height="20" rx="4" fill="#E5E7EB"/>
  <rect x="520" y="450" width="120" height="20" rx="4" fill="#E5E7EB"/>
</svg> 