<svg width="196" height="47" viewBox="0 0 196 47" fill="none" xmlns="http://www.w3.org/2000/svg">
<path d="M2.23242 36V10.6348H7.4707L15.2402 30.0234H15.3633L23.1328 10.6348H28.3711V36H24.293V17.9473H22.2012L26.8242 11.3379L16.8398 36H13.7637L3.7793 11.3379L8.40234 17.9473H6.31055V36H2.23242ZM32.5371 36V17.3672H36.9141V36H32.5371ZM34.7168 14.6953C34.0371 14.6953 33.4629 14.4609 32.9941 13.9922C32.5254 13.5234 32.291 12.9609 32.291 12.3047C32.291 11.6367 32.5254 11.0742 32.9941 10.6172C33.4629 10.1484 34.0371 9.91406 34.7168 9.91406C35.4082 9.91406 35.9883 10.1484 36.457 10.6172C36.9258 11.0742 37.1602 11.6367 37.1602 12.3047C37.1602 12.9609 36.9258 13.5234 36.457 13.9922C35.9883 14.4609 35.4082 14.6953 34.7168 14.6953ZM40.2715 36V33.3457L49.9746 20.8125V20.7422H40.3594V17.3672H54.9668V20.2324L45.6504 32.5371V32.625H55.125V36H40.2715ZM69.6973 36.4395C67.2715 36.4395 65.1621 35.9062 63.3691 34.8398C61.5879 33.7734 60.2109 32.2617 59.2383 30.3047C58.2773 28.3359 57.7969 26.0039 57.7969 23.3086V23.291C57.7969 20.5957 58.2832 18.2695 59.2559 16.3125C60.2285 14.3555 61.6055 12.8496 63.3867 11.7949C65.168 10.7285 67.2715 10.1953 69.6973 10.1953C71.6426 10.1953 73.3828 10.5703 74.918 11.3203C76.4648 12.0703 77.7246 13.1074 78.6973 14.4316C79.6699 15.7559 80.2676 17.2793 80.4902 19.002L80.5078 19.1777H76.0605L75.9727 18.8438C75.7266 17.8711 75.3223 17.0332 74.7598 16.3301C74.1973 15.627 73.4883 15.082 72.6328 14.6953C71.7773 14.3086 70.7988 14.1152 69.6973 14.1152C68.2207 14.1152 66.9375 14.4902 65.8477 15.2402C64.7578 15.9902 63.9141 17.0508 63.3164 18.4219C62.7188 19.7812 62.4199 21.4043 62.4199 23.291V23.3086C62.4199 25.1836 62.7188 26.8125 63.3164 28.1953C63.9141 29.5664 64.7578 30.6328 65.8477 31.3945C66.9492 32.1445 68.2324 32.5195 69.6973 32.5195C70.7754 32.5195 71.7363 32.332 72.5801 31.957C73.4355 31.5703 74.1562 31.0137 74.7422 30.2871C75.3281 29.5605 75.7559 28.6758 76.0254 27.6328L76.0781 27.457H80.5254L80.4902 27.6504C80.2793 29.373 79.6875 30.8965 78.7148 32.2207C77.7422 33.5449 76.4824 34.582 74.9355 35.332C73.3887 36.0703 71.6426 36.4395 69.6973 36.4395ZM88.9629 36.3164C87.7324 36.3164 86.6426 36.082 85.6934 35.6133C84.7559 35.1328 84.0234 34.4707 83.4961 33.627C82.9805 32.7715 82.7227 31.793 82.7227 30.6914V30.6562C82.7227 29.543 82.998 28.5938 83.5488 27.8086C84.1113 27.0117 84.9199 26.3848 85.9746 25.9277C87.0293 25.459 88.3066 25.1777 89.8066 25.084L96.9258 24.6445V27.5449L90.4219 27.9492C89.3438 28.0195 88.5176 28.2773 87.9434 28.7227C87.3691 29.168 87.082 29.7598 87.082 30.498V30.5156C87.082 31.2773 87.3691 31.8809 87.9434 32.3262C88.5293 32.7598 89.3027 32.9766 90.2637 32.9766C91.1074 32.9766 91.8574 32.8066 92.5137 32.4668C93.1816 32.127 93.709 31.6641 94.0957 31.0781C94.4824 30.4922 94.6758 29.8301 94.6758 29.0918V23.502C94.6758 22.5645 94.377 21.8262 93.7793 21.2871C93.1934 20.7363 92.3438 20.4609 91.2305 20.4609C90.1992 20.4609 89.373 20.6836 88.752 21.1289C88.1309 21.5625 87.7441 22.125 87.5918 22.8164L87.5566 22.9746H83.5137L83.5312 22.7637C83.625 21.6621 83.9941 20.6777 84.6387 19.8105C85.2832 18.9316 86.1738 18.2402 87.3105 17.7363C88.459 17.2324 89.8184 16.9805 91.3887 16.9805C92.9473 16.9805 94.2949 17.2383 95.4316 17.7539C96.5801 18.2695 97.4648 18.9902 98.0859 19.916C98.7188 20.8418 99.0352 21.9316 99.0352 23.1855V36H94.6758V33.1348H94.5703C94.2188 33.7793 93.7617 34.3418 93.1992 34.8223C92.6367 35.3027 91.9922 35.6719 91.2656 35.9297C90.5508 36.1875 89.7832 36.3164 88.9629 36.3164ZM102.709 36V10.6348H107.086V36H102.709ZM110.936 36V10.6348H115.312V36H110.936Z" fill="black"/>
<line x1="133.5" y1="8" x2="133.5" y2="38" stroke="#007AFF" stroke-width="5"/>
<line x1="123.5" y1="14" x2="123.5" y2="32" stroke="#007AFF" stroke-width="5"/>
<line x1="153.5" y1="14" x2="153.5" y2="32" stroke="#007AFF" stroke-width="5"/>
<line x1="193.5" y1="14" x2="193.5" y2="32" stroke="#007AFF" stroke-width="5"/>
<line x1="143.5" x2="143.5" y2="47" stroke="#007AFF" stroke-width="5"/>
<line x1="163.5" y1="8" x2="163.5" y2="38" stroke="#007AFF" stroke-width="5"/>
<line x1="173.5" x2="173.5" y2="47" stroke="#007AFF" stroke-width="5"/>
<line x1="183.5" y1="8" x2="183.5" y2="38" stroke="#007AFF" stroke-width="5"/>
</svg>
